<?xml version="1.0" ?><svg height="20px" version="1.1" viewBox="0 0 22 20" width="22px" xmlns="http://www.w3.org/2000/svg" xmlns:sketch="http://www.bohemiancoding.com/sketch/ns" xmlns:xlink="http://www.w3.org/1999/xlink"><title/><desc/><defs/><g fill="none" fill-rule="evenodd" id="Page-1" stroke="none" stroke-width="1"><g fill="#000000" id="Core" transform="translate(-253.000000, -464.000000)"><g id="thumb-down" transform="translate(253.000000, 464.000000)"><path d="M14,0 L5,0 C4.2,0 3.5,0.5 3.2,1.2 L0.2,8.3 C0.1,8.5 0,8.7 0,9 L0,10.9 L0,11 C0,12.1 0.9,13 2,13 L8.3,13 L7.3,17.6 L7.3,17.9 C7.3,18.3 7.5,18.7 7.7,19 L8.8,20 L15.4,13.4 C15.8,13 16,12.5 16,12 L16,2 C16,0.9 15.1,0 14,0 L14,0 Z M18,0 L18,12 L22,12 L22,0 L18,0 L18,0 Z" id="Shape"/></g></g></g></svg>